<?xml version="1.0" encoding="UTF-8" standalone="no"?>

<svg
   version="1.1"
   id="svg1"
   sodipodi:docname="favico.svg"
   width="28"
   height="28"
   inkscape:version="1.4.2 (2aeb623e1d, 2025-05-12)"
   xmlns:inkscape="http://www.inkscape.org/namespaces/inkscape"
   xmlns:sodipodi="http://sodipodi.sourceforge.net/DTD/sodipodi-0.dtd"
   xmlns="http://www.w3.org/2000/svg"
   xmlns:svg="http://www.w3.org/2000/svg">
  <g
     id="layer1"
     transform="matrix(1.0922398,0,0,1.0307802,-116.17335,-156.54544)">
    <path
       d="m 117.38752,153.28194 c -0.21167,1.16417 -0.38806,1.44639 -1.41111,1.76389 -1.05834,0.35278 -1.30528,0.3175 -2.36361,-0.49389 l -1.16417,-0.91722 -1.16417,0.98778 c -1.12889,0.9525 -1.12889,0.98777 -0.635,2.15194 0.49389,1.12889 0.45861,1.30528 -0.21167,2.2225 -0.56444,0.77611 -1.02305,0.98778 -2.04611,0.98778 -1.27,0 -1.37583,0.0705 -1.72861,1.44639 -0.21166,0.81139 -0.35278,1.48166 -0.28222,1.51694 0.0706,0.0353 0.52917,0.35278 1.09361,0.67028 0.74083,0.49389 0.9525,0.88194 0.9525,1.83444 0,0.77612 -0.21167,1.34056 -0.59972,1.55223 -1.5875,0.91722 -1.5875,0.91722 -1.12889,2.46944 0.38806,1.34056 0.52917,1.44639 1.69333,1.44639 0.91723,0 1.44639,0.24694 2.01084,0.9525 0.70555,0.88194 0.70555,1.02306 0.24694,2.18722 -0.52917,1.23473 -0.52917,1.23473 0.67028,2.18723 l 1.16417,0.98777 0.9525,-0.91722 c 0.81139,-0.77611 1.09361,-0.84667 2.29305,-0.56444 1.19945,0.28222 1.34056,0.45861 1.62278,1.79916 0.28222,1.48167 0.28222,1.48167 1.83444,1.48167 1.55223,0 1.55223,0 1.83445,-1.48167 0.28222,-1.34055 0.42333,-1.51694 1.62278,-1.79916 1.19944,-0.28223 1.44639,-0.21167 2.32833,0.59972 l 0.9525,0.91722 1.19944,-1.02305 1.23473,-1.02306 -0.56445,-1.19944 c -0.56444,-1.12889 -0.56444,-1.23473 0.17639,-2.15195 0.59972,-0.74083 1.09361,-0.9525 2.04611,-0.9525 1.19945,0 1.34056,-0.10583 1.65806,-1.34056 0.49389,-1.72861 0.52917,-1.5875 -0.67028,-2.29305 -0.84667,-0.52917 -1.05833,-0.88195 -1.05833,-1.83445 0,-0.9525 0.21166,-1.30527 1.05833,-1.83444 1.19945,-0.70556 1.16417,-0.56444 0.67028,-2.32833 -0.3175,-1.19945 -0.45861,-1.30528 -1.65806,-1.30528 -0.9525,0 -1.44639,-0.21167 -2.04611,-0.9525 -0.70555,-0.88195 -0.70555,-1.02306 -0.24694,-2.18722 0.52916,-1.23473 0.52916,-1.27 -0.59973,-2.2225 l -1.16416,-0.9525 -1.16417,0.88194 c -1.05833,0.81139 -1.30528,0.88194 -2.36361,0.52917 -1.05833,-0.35278 -1.23472,-0.59973 -1.44639,-1.79917 -0.21167,-1.41111 -0.24694,-1.41111 -1.79917,-1.41111 -1.55222,0 -1.5875,0 -1.79916,1.41111 z m 4.48028,4.7625 c 5.18583,1.83445 6.77333,8.67833 2.99861,12.80583 -2.68111,2.99862 -7.97278,3.10445 -11.07723,0.28223 -3.28083,-2.96334 -3.03389,-8.96056 0.45862,-11.7475 2.32833,-1.86973 4.86833,-2.29306 7.62,-1.34056 z"
       id="path1"
       style="fill:#aaffaa;stroke-width:0.0352778" />
    <circle
       style="fill:#aaffaa;stroke-width:0.347947"
       id="path3"
       cx="119.14928"
       cy="165.49182"
       r="3.2087557" />
  </g>
</svg>
